<svg width="32" height="32" viewBox="0 0 32 32" fill="none" xmlns="http://www.w3.org/2000/svg">
<path d="M4.82667 23.04C4.95751 23.3688 5.21363 23.6322 5.53869 23.7723C5.86376 23.9123 6.23113 23.9175 6.56 23.7866C6.88887 23.6558 7.15229 23.3997 7.29232 23.0746C7.43235 22.7495 7.43751 22.3822 7.30667 22.0533L5.81333 18.2933L14.6667 16.3333V22.6666C14.6667 23.0202 14.8071 23.3594 15.0572 23.6094C15.3072 23.8595 15.6464 24 16 24C16.3536 24 16.6928 23.8595 16.9428 23.6094C17.1929 23.3594 17.3333 23.0202 17.3333 22.6666V16.3333L26.1867 18.2933L24.6933 22.0533C24.6284 22.2161 24.5962 22.3901 24.5986 22.5654C24.6009 22.7407 24.6379 22.9138 24.7072 23.0748C24.7766 23.2358 24.877 23.3815 25.0027 23.5037C25.1285 23.6258 25.2771 23.722 25.44 23.7866C25.5971 23.8487 25.7645 23.8804 25.9333 23.88C26.2004 23.8802 26.4613 23.8003 26.6824 23.6505C26.9035 23.5007 27.0745 23.288 27.1733 23.04L29.24 17.8266C29.3109 17.6463 29.3417 17.4527 29.3302 17.2593C29.3187 17.0658 29.2652 16.8773 29.1733 16.7066C29.0842 16.5366 28.9595 16.3879 28.8076 16.2705C28.6557 16.1531 28.4803 16.07 28.2933 16.0266L24 15.08V9.33329C24 8.97967 23.8595 8.64053 23.6095 8.39048C23.3594 8.14044 23.0203 7.99996 22.6667 7.99996H20V3.99996C20 3.64634 19.8595 3.3072 19.6095 3.05715C19.3594 2.8071 19.0203 2.66663 18.6667 2.66663H13.3333C12.9797 2.66663 12.6406 2.8071 12.3905 3.05715C12.1405 3.3072 12 3.64634 12 3.99996V7.99996H9.33333C8.97971 7.99996 8.64057 8.14044 8.39052 8.39048C8.14048 8.64053 8 8.97967 8 9.33329V15.08L3.70667 16C3.51969 16.0433 3.34426 16.1265 3.19239 16.2438C3.04051 16.3612 2.91576 16.51 2.82667 16.68C2.73484 16.8506 2.68131 17.0392 2.66979 17.2326C2.65828 17.426 2.68906 17.6196 2.76 17.8L4.82667 23.04ZM14.6667 5.33329H17.3333V7.99996H14.6667V5.33329ZM10.6667 10.6666H21.3333V14.48L16.2933 13.3333H15.7067L10.6667 14.48V10.6666ZM27.6133 25.7066C27.1455 25.85 26.6976 26.0516 26.28 26.3066C25.8552 26.555 25.3721 26.6859 24.88 26.6859C24.3879 26.6859 23.9048 26.555 23.48 26.3066C22.5564 25.7856 21.5138 25.5118 20.4533 25.5118C19.3928 25.5118 18.3503 25.7856 17.4267 26.3066C16.9961 26.5521 16.509 26.6812 16.0133 26.6812C15.5177 26.6812 15.0306 26.5521 14.6 26.3066C13.6755 25.7881 12.6333 25.5157 11.5733 25.5157C10.5133 25.5157 9.47114 25.7881 8.54667 26.3066C8.12191 26.555 7.63872 26.6859 7.14667 26.6859C6.65462 26.6859 6.17142 26.555 5.74667 26.3066C5.32911 26.0516 4.88116 25.85 4.41333 25.7066C4.23592 25.6435 4.04717 25.6188 3.85948 25.6339C3.6718 25.649 3.48946 25.7037 3.32445 25.7944C3.15944 25.8851 3.01551 26.0097 2.90213 26.1601C2.78876 26.3104 2.70851 26.483 2.66667 26.6666C2.56713 27.0043 2.60519 27.3677 2.77255 27.6774C2.93991 27.9872 3.22298 28.2181 3.56 28.32C3.82848 28.3927 4.08463 28.505 4.32 28.6533C5.12894 29.128 6.04876 29.3809 6.98667 29.3866C7.9608 29.3868 8.91763 29.1292 9.76 28.64C10.2826 28.3517 10.8698 28.2004 11.4667 28.2004C12.0635 28.2004 12.6507 28.3517 13.1733 28.64C14.0097 29.1182 14.9565 29.3698 15.92 29.3698C16.8835 29.3698 17.8303 29.1182 18.6667 28.64C19.1893 28.3517 19.7765 28.2004 20.3733 28.2004C20.9702 28.2004 21.5574 28.3517 22.08 28.64C22.9064 29.1332 23.8509 29.3936 24.8133 29.3936C25.7758 29.3936 26.7202 29.1332 27.5467 28.64C27.782 28.4917 28.0382 28.3794 28.3067 28.3066C28.4841 28.2707 28.6524 28.1991 28.8012 28.096C28.9501 27.993 29.0764 27.8607 29.1724 27.7073C29.2685 27.5538 29.3323 27.3824 29.36 27.2035C29.3876 27.0246 29.3786 26.8419 29.3333 26.6666C29.291 26.4862 29.2114 26.3166 29.0998 26.1686C28.9882 26.0206 28.847 25.8975 28.6851 25.8072C28.5233 25.7168 28.3444 25.6612 28.1598 25.6439C27.9753 25.6266 27.7892 25.648 27.6133 25.7066Z" fill="#292929"/>
</svg>
